<svg width="158" height="40" viewBox="0 0 158 40" fill="none" xmlns="http://www.w3.org/2000/svg">
<path d="M23.6268 22.1785C24.3009 21.1787 24.7389 20.0803 25.2025 18.9171C25.6841 17.709 26.1819 16.4599 26.9734 15.3098C28.0136 13.798 29.5457 12.5431 31.3358 11.6687V2.17223C31.3358 0.972509 30.1865 0 28.7687 0H18.5013C17.0835 0 15.9342 0.972509 15.9342 2.17223V13.4836H2.56706C1.14927 13.4836 0 14.4561 0 15.6559V24.3441C0 25.5439 1.14927 26.5164 2.56706 26.5164H15.8312C19.0315 26.1956 22.0258 24.552 23.6268 22.1785Z" fill="url(#paint0_linear_285_4160)"/>
<path d="M44.7032 13.4839H31.361C30.2245 14.1763 29.2524 15.061 28.5473 16.0855C27.849 17.1007 27.4017 18.2222 26.9284 19.4099C26.4574 20.5913 25.9704 21.813 25.2085 22.9425C23.3081 25.7603 19.7385 27.7053 15.9345 28.0578V37.8278C15.9345 39.0275 17.0837 40 18.5015 40H28.769C30.1868 40 31.3361 39.0275 31.3361 37.8278V26.5164H44.7034C46.1212 26.5164 47.2705 25.5439 47.2705 24.3442V15.6559C47.27 14.4564 46.121 13.4839 44.7032 13.4839Z" fill="url(#paint1_linear_285_4160)"/>
<path opacity="0.25" d="M31.2731 1.69969C31.0176 0.727842 29.9945 0.000610352 28.769 0.000610352H18.5015C17.0837 0.000610352 15.9345 0.973115 15.9345 2.17284V13.4842H2.56706C1.14927 13.4842 0 14.4568 0 15.6565V24.3447C0 24.6178 0.0621836 24.8778 0.170684 25.1184C6.17931 25.1341 12.171 22.745 15.8827 18.7314C17.486 16.9973 18.6743 15.0208 19.9326 12.9285C21.2393 10.755 22.5904 8.50766 24.4649 6.51664C26.3221 4.543 28.6607 2.9124 31.2731 1.69969Z" fill="white"/>
<path d="M54.3614 11.8704H58.8267L63.5429 23.3766H63.7436L68.4598 11.8704H72.9252V28.9958H69.4131V17.8492H69.2709L64.839 28.9122H62.4475L58.0156 17.8074H57.8735V28.9958H54.3614V11.8704ZM81.6949 29.2467C80.3736 29.2467 79.2364 28.9791 78.2831 28.444C77.3354 27.9032 76.6052 27.1395 76.0923 26.1528C75.5794 25.1605 75.323 23.987 75.323 22.6323C75.323 21.3111 75.5794 20.1516 76.0923 19.1537C76.6052 18.1558 77.3271 17.3782 78.2581 16.8207C79.1946 16.2632 80.2928 15.9845 81.5527 15.9845C82.4001 15.9845 83.1889 16.1211 83.9192 16.3942C84.655 16.6618 85.2961 17.066 85.8424 17.6067C86.3943 18.1475 86.8236 18.8276 87.1302 19.6471C87.4368 20.461 87.5901 21.4143 87.5901 22.5069V23.4853H76.7445V21.2777H84.2369C84.2369 20.7648 84.1254 20.3105 83.9024 19.9147C83.6794 19.5189 83.3701 19.2095 82.9742 18.9865C82.584 18.7579 82.1297 18.6436 81.6112 18.6436C81.0705 18.6436 80.5911 18.7691 80.173 19.0199C79.7604 19.2652 79.4371 19.5969 79.203 20.015C78.9688 20.4275 78.849 20.8874 78.8434 21.3947V23.4936C78.8434 24.1291 78.9605 24.6782 79.1946 25.1409C79.4343 25.6036 79.7716 25.9604 80.2064 26.2113C80.6412 26.4621 81.1569 26.5876 81.7534 26.5876C82.1492 26.5876 82.5115 26.5318 82.8405 26.4203C83.1694 26.3088 83.4509 26.1416 83.685 25.9186C83.9192 25.6956 84.0976 25.4225 84.2202 25.0991L87.5148 25.3165C87.3476 26.1082 87.0048 26.7994 86.4863 27.3903C85.9734 27.9757 85.31 28.4328 84.4961 28.7617C83.6878 29.085 82.754 29.2467 81.6949 29.2467ZM94.6477 29.2049C93.6721 29.2049 92.7885 28.954 91.9969 28.4523C91.2109 27.945 90.5865 27.2008 90.1238 26.2196C89.6667 25.2329 89.4381 24.0232 89.4381 22.5905C89.4381 21.1188 89.675 19.8951 90.1489 18.9196C90.6227 17.9384 91.2527 17.2054 92.0387 16.7204C92.8303 16.2298 93.6972 15.9845 94.6393 15.9845C95.3584 15.9845 95.9577 16.1071 96.4372 16.3524C96.9222 16.5921 97.3124 16.8932 97.6078 17.2555C97.9089 17.6123 98.1374 17.9635 98.2935 18.3091H98.4022V11.8704H101.956V28.9958H98.444V26.9388H98.2935C98.1263 27.2956 97.8894 27.6496 97.5828 28.0008C97.2817 28.3464 96.8887 28.6335 96.4037 28.8621C95.9243 29.0906 95.3389 29.2049 94.6477 29.2049ZM95.7766 26.3702C96.3507 26.3702 96.8357 26.2141 97.2315 25.9019C97.6329 25.5841 97.9395 25.1409 98.1514 24.5723C98.3688 24.0037 98.4775 23.3375 98.4775 22.5738C98.4775 21.8101 98.3716 21.1467 98.1597 20.5836C97.9479 20.0206 97.6413 19.5858 97.2399 19.2791C96.8385 18.9725 96.3507 18.8192 95.7766 18.8192C95.1912 18.8192 94.6978 18.9781 94.2965 19.2959C93.8951 19.6136 93.5913 20.054 93.385 20.6171C93.1787 21.1801 93.0756 21.8324 93.0756 22.5738C93.0756 23.3208 93.1787 23.9814 93.385 24.5556C93.5968 25.1242 93.9007 25.5702 94.2965 25.8935C94.6978 26.2113 95.1912 26.3702 95.7766 26.3702ZM104.885 28.9958V16.1517H108.447V28.9958H104.885ZM106.674 14.4961C106.145 14.4961 105.69 14.3204 105.311 13.9692C104.938 13.6125 104.751 13.186 104.751 12.6898C104.751 12.1993 104.938 11.7784 105.311 11.4272C105.69 11.0704 106.145 10.892 106.674 10.892C107.204 10.892 107.656 11.0704 108.029 11.4272C108.408 11.7784 108.598 12.1993 108.598 12.6898C108.598 13.186 108.408 13.6125 108.029 13.9692C107.656 14.3204 107.204 14.4961 106.674 14.4961ZM118.208 16.1517V18.8276H110.281V16.1517H118.208ZM112.095 28.9958V15.2235C112.095 14.2926 112.276 13.5205 112.639 12.9073C113.007 12.294 113.508 11.8341 114.144 11.5275C114.779 11.2209 115.501 11.0676 116.31 11.0676C116.856 11.0676 117.355 11.1094 117.806 11.193C118.264 11.2767 118.604 11.3519 118.827 11.4188L118.191 14.0947C118.052 14.0501 117.879 14.0083 117.673 13.9692C117.472 13.9302 117.266 13.9107 117.054 13.9107C116.53 13.9107 116.165 14.0334 115.958 14.2786C115.752 14.5183 115.649 14.8556 115.649 15.2904V28.9958H112.095ZM120.384 28.9958V16.1517H123.946V28.9958H120.384ZM122.173 14.4961C121.644 14.4961 121.19 14.3204 120.81 13.9692C120.437 13.6125 120.25 13.186 120.25 12.6898C120.25 12.1993 120.437 11.7784 120.81 11.4272C121.19 11.0704 121.644 10.892 122.173 10.892C122.703 10.892 123.155 11.0704 123.528 11.4272C123.907 11.7784 124.097 12.1993 124.097 12.6898C124.097 13.186 123.907 13.6125 123.528 13.9692C123.155 14.3204 122.703 14.4961 122.173 14.4961ZM126.8 28.9958V16.1517H130.253V18.3928H130.387C130.621 17.5956 131.014 16.9935 131.566 16.5866C132.118 16.174 132.754 15.9678 133.473 15.9678C133.651 15.9678 133.843 15.9789 134.05 16.0012C134.256 16.0235 134.437 16.0542 134.593 16.0932V19.2541C134.426 19.2039 134.195 19.1593 133.899 19.1203C133.604 19.0812 133.333 19.0617 133.088 19.0617C132.564 19.0617 132.096 19.176 131.683 19.4046C131.276 19.6276 130.953 19.9397 130.713 20.3411C130.479 20.7425 130.362 21.2052 130.362 21.7292V28.9958H126.8ZM147.122 19.8143L143.86 20.015C143.805 19.7363 143.685 19.4854 143.501 19.2624C143.317 19.0339 143.074 18.8527 142.773 18.7189C142.478 18.5795 142.124 18.5098 141.711 18.5098C141.159 18.5098 140.694 18.6269 140.315 18.861C139.936 19.0896 139.746 19.3962 139.746 19.7809C139.746 20.0875 139.869 20.3467 140.114 20.5585C140.36 20.7704 140.78 20.9404 141.377 21.0686L143.702 21.5369C144.95 21.7933 145.881 22.2059 146.494 22.7745C147.108 23.3431 147.414 24.0901 147.414 25.0155C147.414 25.8573 147.166 26.5959 146.67 27.2315C146.18 27.867 145.505 28.3631 144.646 28.7199C143.794 29.0711 142.81 29.2467 141.695 29.2467C139.994 29.2467 138.64 28.8927 137.631 28.1847C136.627 27.4712 136.039 26.5012 135.866 25.2747L139.37 25.0908C139.476 25.6092 139.732 26.005 140.139 26.2782C140.546 26.5458 141.068 26.6796 141.703 26.6796C142.327 26.6796 142.829 26.5597 143.208 26.32C143.593 26.0747 143.788 25.7597 143.794 25.3751C143.788 25.0517 143.651 24.787 143.384 24.5807C143.116 24.3688 142.704 24.2072 142.146 24.0957L139.922 23.6525C138.668 23.4016 137.734 22.9668 137.121 22.348C136.513 21.7292 136.209 20.9404 136.209 19.9816C136.209 19.1565 136.432 18.4457 136.878 17.8492C137.33 17.2527 137.962 16.7928 138.776 16.4695C139.596 16.1462 140.555 15.9845 141.653 15.9845C143.275 15.9845 144.552 16.3273 145.483 17.013C146.419 17.6987 146.966 18.6325 147.122 19.8143ZM156.489 16.1517V18.8276H148.754V16.1517H156.489ZM150.51 13.0745H154.073V25.049C154.073 25.3779 154.123 25.6343 154.223 25.8183C154.323 25.9967 154.463 26.1221 154.641 26.1946C154.825 26.267 155.037 26.3033 155.277 26.3033C155.444 26.3033 155.611 26.2893 155.778 26.2615C155.946 26.228 156.074 26.2029 156.163 26.1862L156.723 28.837C156.545 28.8927 156.294 28.9568 155.971 29.0293C155.647 29.1073 155.254 29.1547 154.792 29.1715C153.933 29.2049 153.181 29.0906 152.534 28.8286C151.893 28.5666 151.394 28.1596 151.037 27.6077C150.68 27.0559 150.505 26.359 150.51 25.5172V13.0745Z" fill="#E5E5E5"/>
<defs>
<linearGradient id="paint0_linear_285_4160" x1="0.15112" y1="0.128009" x2="25.6106" y2="30.2151" gradientUnits="userSpaceOnUse">
<stop stop-color="#48B0E0"/>
<stop offset="0.8166" stop-color="#2C62D6"/>
</linearGradient>
<linearGradient id="paint1_linear_285_4160" x1="25.5199" y1="21.595" x2="42.8941" y2="42.1271" gradientUnits="userSpaceOnUse">
<stop stop-color="#48B0E0"/>
<stop offset="0.8166" stop-color="#2C62D6"/>
</linearGradient>
</defs>
</svg>
