<svg width="48" height="40" viewBox="0 0 48 40" fill="none" xmlns="http://www.w3.org/2000/svg">
<path d="M23.6268 22.1785C24.3009 21.1787 24.7389 20.0803 25.2025 18.9171C25.6841 17.709 26.1819 16.4599 26.9734 15.3098C28.0136 13.798 29.5457 12.5431 31.3358 11.6687V2.17223C31.3358 0.972509 30.1865 0 28.7687 0H18.5013C17.0835 0 15.9342 0.972509 15.9342 2.17223V13.4836H2.56706C1.14927 13.4836 0 14.4561 0 15.6559V24.3441C0 25.5439 1.14927 26.5164 2.56706 26.5164H15.8312C19.0315 26.1956 22.0258 24.552 23.6268 22.1785Z" fill="url(#paint0_linear_285_4161)"/>
<path d="M44.7032 13.4839H31.361C30.2245 14.1763 29.2524 15.061 28.5473 16.0855C27.849 17.1007 27.4017 18.2222 26.9284 19.4099C26.4574 20.5913 25.9704 21.813 25.2085 22.9425C23.3081 25.7603 19.7385 27.7053 15.9345 28.0578V37.8278C15.9345 39.0275 17.0837 40 18.5015 40H28.769C30.1868 40 31.3361 39.0275 31.3361 37.8278V26.5164H44.7034C46.1212 26.5164 47.2705 25.5439 47.2705 24.3442V15.6559C47.27 14.4564 46.121 13.4839 44.7032 13.4839Z" fill="url(#paint1_linear_285_4161)"/>
<path opacity="0.25" d="M31.2731 1.69969C31.0176 0.727842 29.9945 0.000610352 28.769 0.000610352H18.5015C17.0837 0.000610352 15.9345 0.973115 15.9345 2.17284V13.4842H2.56706C1.14927 13.4842 0 14.4568 0 15.6565V24.3447C0 24.6178 0.0621836 24.8778 0.170684 25.1184C6.17931 25.1341 12.171 22.745 15.8827 18.7314C17.486 16.9973 18.6743 15.0208 19.9326 12.9285C21.2393 10.755 22.5904 8.50766 24.4649 6.51664C26.3221 4.543 28.6607 2.9124 31.2731 1.69969Z" fill="white"/>
<defs>
<linearGradient id="paint0_linear_285_4161" x1="0.15112" y1="0.128009" x2="25.6106" y2="30.2151" gradientUnits="userSpaceOnUse">
<stop stop-color="#48B0E0"/>
<stop offset="0.8166" stop-color="#2C62D6"/>
</linearGradient>
<linearGradient id="paint1_linear_285_4161" x1="25.5199" y1="21.595" x2="42.8941" y2="42.1271" gradientUnits="userSpaceOnUse">
<stop stop-color="#48B0E0"/>
<stop offset="0.8166" stop-color="#2C62D6"/>
</linearGradient>
</defs>
</svg>
